<mxfile host="app.diagrams.net" modified="2023-05-21T17:21:37.991Z" agent="Mozilla/5.0 (Macintosh; Intel Mac OS X 10_15_7) AppleWebKit/605.1.15 (KHTML, like Gecko) Version/16.3 Safari/605.1.15" etag="WuSNwIJgn6NCIJpa1uI-" version="21.3.2" type="github">
  <diagram name="Page-1" id="-TLbGnTHELKUlk2XSNLn">
    <mxGraphModel dx="1158" dy="785" grid="1" gridSize="10" guides="1" tooltips="1" connect="1" arrows="1" fold="1" page="1" pageScale="1" pageWidth="827" pageHeight="1169" math="0" shadow="0">
      <root>
        <mxCell id="0" />
        <mxCell id="1" parent="0" />
        <mxCell id="S1Um8w8Yz1RI7QfKpjZw-1" value="App Initialised" style="swimlane;startSize=20;horizontal=1;childLayout=treeLayout;horizontalTree=0;resizable=0;containerType=tree;fontSize=12;" vertex="1" parent="1">
          <mxGeometry x="280" y="120" width="280" height="190" as="geometry" />
        </mxCell>
        <mxCell id="S1Um8w8Yz1RI7QfKpjZw-2" value="Auth via SSO" style="whiteSpace=wrap;html=1;" vertex="1" parent="S1Um8w8Yz1RI7QfKpjZw-1">
          <mxGeometry x="90" y="40" width="100" height="40" as="geometry" />
        </mxCell>
        <mxCell id="S1Um8w8Yz1RI7QfKpjZw-3" value="General User" style="whiteSpace=wrap;html=1;" vertex="1" parent="S1Um8w8Yz1RI7QfKpjZw-1">
          <mxGeometry x="20" y="130" width="100" height="40" as="geometry" />
        </mxCell>
        <mxCell id="S1Um8w8Yz1RI7QfKpjZw-4" value="" style="edgeStyle=elbowEdgeStyle;elbow=vertical;html=1;rounded=1;curved=0;sourcePerimeterSpacing=0;targetPerimeterSpacing=0;startSize=6;endSize=6;" edge="1" parent="S1Um8w8Yz1RI7QfKpjZw-1" source="S1Um8w8Yz1RI7QfKpjZw-2" target="S1Um8w8Yz1RI7QfKpjZw-3">
          <mxGeometry relative="1" as="geometry" />
        </mxCell>
        <mxCell id="S1Um8w8Yz1RI7QfKpjZw-5" value="Admin User" style="whiteSpace=wrap;html=1;" vertex="1" parent="S1Um8w8Yz1RI7QfKpjZw-1">
          <mxGeometry x="160" y="130" width="100" height="40" as="geometry" />
        </mxCell>
        <mxCell id="S1Um8w8Yz1RI7QfKpjZw-6" value="" style="edgeStyle=elbowEdgeStyle;elbow=vertical;html=1;rounded=1;curved=0;sourcePerimeterSpacing=0;targetPerimeterSpacing=0;startSize=6;endSize=6;" edge="1" parent="S1Um8w8Yz1RI7QfKpjZw-1" source="S1Um8w8Yz1RI7QfKpjZw-2" target="S1Um8w8Yz1RI7QfKpjZw-5">
          <mxGeometry relative="1" as="geometry" />
        </mxCell>
        <mxCell id="S1Um8w8Yz1RI7QfKpjZw-7" value="General User Interface" style="swimlane;" vertex="1" parent="1">
          <mxGeometry x="120" y="400" width="200" height="200" as="geometry" />
        </mxCell>
        <mxCell id="S1Um8w8Yz1RI7QfKpjZw-8" style="edgeStyle=orthogonalEdgeStyle;rounded=0;orthogonalLoop=1;jettySize=auto;html=1;exitX=0.5;exitY=1;exitDx=0;exitDy=0;entryX=0.5;entryY=0;entryDx=0;entryDy=0;" edge="1" parent="1" source="S1Um8w8Yz1RI7QfKpjZw-3" target="S1Um8w8Yz1RI7QfKpjZw-7">
          <mxGeometry relative="1" as="geometry" />
        </mxCell>
        <mxCell id="S1Um8w8Yz1RI7QfKpjZw-9" value="Admin User Interface" style="swimlane;" vertex="1" parent="1">
          <mxGeometry x="520" y="400" width="200" height="200" as="geometry" />
        </mxCell>
        <mxCell id="S1Um8w8Yz1RI7QfKpjZw-10" style="edgeStyle=orthogonalEdgeStyle;rounded=0;orthogonalLoop=1;jettySize=auto;html=1;exitX=0.5;exitY=1;exitDx=0;exitDy=0;" edge="1" parent="1" source="S1Um8w8Yz1RI7QfKpjZw-5" target="S1Um8w8Yz1RI7QfKpjZw-9">
          <mxGeometry relative="1" as="geometry" />
        </mxCell>
      </root>
    </mxGraphModel>
  </diagram>
</mxfile>
